# xmcd
#
# Track frame offsets:
#	150
#	11374
#	22961
#	33008
#	47498
#	64592
#	75407
#	87475
#	98167
#	111114
#	126332
#	138175
#	150238
#	159149
#	168808
#	182501
#	193429
#	204781
#	215725
#	225678
#	238836
#	249741
#	262519
#	274346
#	289780
#	300048
#
# Disc length: 4154 seconds
#
# Revision: 0
# Processed by: cddbd v1.4PL0 Copyright (c) Steve Scherf et al.
# Submitted via: EasyCDDAExtractor 4.6.9.1
#
DISCID=4210381a
DTITLE=SIMONE AUBE CHANTAL HAMEL &DIANE MALLET - CHANSONS SOUVENIR
DYEAR=1900
DGENRE=
TTITLE0=Country Girl
TTITLE1=Promettre
TTITLE2=Mon Champion
TTITLE3=il Faut Ce Dire Adieu 
TTITLE4=Les Enfants Au Coeurs  Briser
TTITLE5=La Star Du country
TTITLE6=Dieu Pardonner-moi
TTITLE7=L'histoire Du madelinot
TTITLE8=Une Valse Pour Toi
TTITLE9=L'amour N'est Plus
TTITLE10=les plaisir de la vie
TTITLE11=Si Je Pouvait Revivre Ma Vie
TTITLE12=Ton Anneau A mon Doigt
TTITLE13=Chere Maman
TTITLE14=Ne Suis-je Qu'un Jouet
TTITLE15=Amour Delaisser
TTITLE16=Prend Ma Main
TTITLE17=Dans Tes Bras Je m'Abondonne
TTITLE18=N'attendon Pas
TTITLE19=Au Pied De l'hotel
TTITLE20=Un Autre Jour Une Autre Chance
TTITLE21=Je T'en Prie Aide-moi A Oublier
TTITLE22=Un Jour On Sera Separer
TTITLE23=L'Amour De Ma Vie
TTITLE24=Tu Ma Tromper
TTITLE25=Ton Coeur N'etait Pas Pour moi
EXTD=
EXTT0=
EXTT1=
EXTT2=
EXTT3=
EXTT4=
EXTT5=
EXTT6=
EXTT7=
EXTT8=
EXTT9=
EXTT10=
EXTT11=
EXTT12=
EXTT13=
EXTT14=
EXTT15=
EXTT16=
EXTT17=
EXTT18=
EXTT19=
EXTT20=
EXTT21=
EXTT22=
EXTT23=
EXTT24=
EXTT25=
PLAYORDER=
